<svg width="229" height="38" viewBox="0 0 229 38" fill="none" xmlns="http://www.w3.org/2000/svg">
<path d="M46.634 37.0549C45.3179 37.0549 44.3054 36.7005 43.5967 35.9918C42.888 35.2831 42.5337 34.2707 42.5337 32.9545V5.4671C42.5337 4.15094 42.888 3.13851 43.5967 2.42981C44.3054 1.72111 45.3179 1.36676 46.634 1.36676H58.8844C61.4155 1.36676 63.5753 1.73798 65.3639 2.48043C67.1526 3.22288 68.5025 4.28593 69.4137 5.66958C70.3586 7.05323 70.8311 8.70687 70.8311 10.6305C70.8311 12.7566 70.2236 14.5621 69.0087 16.047C67.7938 17.5319 66.1233 18.5274 63.9972 19.0336V18.2237C66.4607 18.6624 68.3675 19.6411 69.7174 21.1597C71.101 22.6446 71.7929 24.5851 71.7929 26.9812C71.7929 30.1535 70.6961 32.6339 68.5025 34.4225C66.3089 36.1774 63.2885 37.0549 59.4412 37.0549H46.634ZM50.0257 31.2334H58.3782C60.4031 31.2334 61.8879 30.8453 62.8329 30.0691C63.7778 29.2592 64.2503 28.078 64.2503 26.5256C64.2503 24.9732 63.7778 23.8089 62.8329 23.0327C61.8879 22.2565 60.4031 21.8684 58.3782 21.8684H50.0257V31.2334ZM50.0257 16.047H57.5176C59.475 16.047 60.9261 15.6757 61.8711 14.9333C62.816 14.1909 63.2885 13.0772 63.2885 11.5923C63.2885 10.1411 62.816 9.04434 61.8711 8.30189C60.9261 7.55945 59.475 7.18822 57.5176 7.18822H50.0257V16.047Z" fill="white"/>
<path d="M86.2358 37.6117C84.1434 37.6117 82.4054 37.2236 81.0218 36.4474C79.6381 35.6712 78.6088 34.5069 77.9339 32.9545C77.2927 31.3684 76.9721 29.411 76.9721 27.0824V15.642C76.9721 14.3596 77.2927 13.3978 77.9339 12.7566C78.6088 12.1154 79.5538 11.7948 80.7687 11.7948C81.9836 11.7948 82.9285 12.1154 83.6035 12.7566C84.2784 13.3978 84.6159 14.3596 84.6159 15.642V27.2849C84.6159 28.7698 84.9196 29.8835 85.5271 30.6259C86.1345 31.3346 87.0964 31.689 88.4125 31.689C89.8637 31.689 91.0448 31.1828 91.956 30.1703C92.9009 29.1242 93.3734 27.7574 93.3734 26.07V15.642C93.3734 14.3596 93.694 13.3978 94.3352 12.7566C95.0102 12.1154 95.9551 11.7948 97.17 11.7948C98.4187 11.7948 99.3636 12.1154 100.005 12.7566C100.68 13.3978 101.017 14.3596 101.017 15.642V33.6126C101.017 36.2112 99.7855 37.5105 97.3219 37.5105C96.107 37.5105 95.1789 37.173 94.5377 36.498C93.8965 35.8231 93.5759 34.8613 93.5759 33.6126V30.221L94.3352 32.1952C93.5928 33.9163 92.5297 35.2494 91.1461 36.1943C89.7624 37.1392 88.1257 37.6117 86.2358 37.6117Z" fill="white"/>
<path d="M116.449 37.6117C114.964 37.6117 113.428 37.4767 111.842 37.2067C110.29 36.9367 108.873 36.4812 107.59 35.8399C106.915 35.5025 106.426 35.0806 106.122 34.5744C105.852 34.0344 105.734 33.4945 105.768 32.9545C105.801 32.4146 105.97 31.9252 106.274 31.4865C106.611 31.0478 107.033 30.7609 107.539 30.6259C108.079 30.4572 108.67 30.5078 109.311 30.7778C110.695 31.3515 111.96 31.7565 113.108 31.9927C114.255 32.229 115.386 32.3471 116.499 32.3471C117.951 32.3471 118.997 32.1277 119.638 31.689C120.313 31.2165 120.65 30.6091 120.65 29.8666C120.65 29.1917 120.431 28.6855 119.992 28.348C119.554 28.0105 118.912 27.7743 118.069 27.6393L112.754 26.6775C110.661 26.3062 109.041 25.5469 107.894 24.3995C106.78 23.2183 106.223 21.7166 106.223 19.8942C106.223 18.2068 106.696 16.7557 107.641 15.5408C108.586 14.2921 109.885 13.3472 111.539 12.706C113.226 12.031 115.133 11.6935 117.259 11.6935C118.777 11.6935 120.178 11.8285 121.46 12.0985C122.743 12.3685 123.975 12.8072 125.156 13.4147C125.763 13.7184 126.185 14.1234 126.421 14.6296C126.691 15.1358 126.776 15.6589 126.674 16.1988C126.607 16.7388 126.404 17.2281 126.067 17.6669C125.729 18.1056 125.291 18.3924 124.751 18.5274C124.245 18.6624 123.654 18.5949 122.979 18.3249C121.899 17.8187 120.904 17.4644 119.992 17.2619C119.081 17.0257 118.204 16.9075 117.36 16.9075C115.841 16.9075 114.745 17.1606 114.07 17.6669C113.395 18.1393 113.057 18.7468 113.057 19.4892C113.057 20.0629 113.243 20.5523 113.614 20.9572C114.019 21.3285 114.626 21.5816 115.436 21.7166L120.752 22.6784C122.945 23.0496 124.616 23.792 125.763 24.9057C126.911 25.9856 127.484 27.4705 127.484 29.3604C127.484 31.9252 126.472 33.9501 124.447 35.435C122.456 36.8861 119.79 37.6117 116.449 37.6117Z" fill="white"/>
<path d="M137.651 37.0549C136.369 37.0549 135.373 36.7005 134.665 35.9918C133.99 35.2831 133.652 34.3044 133.652 33.0558V5.26463C133.652 3.94847 133.99 2.95292 134.665 2.27796C135.34 1.60301 136.318 1.26554 137.601 1.26554C138.849 1.26554 139.811 1.60301 140.486 2.27796C141.161 2.95292 141.498 3.94847 141.498 5.26463V30.4235H155.065C156.145 30.4235 156.972 30.7103 157.545 31.284C158.153 31.8577 158.457 32.6677 158.457 33.7139C158.457 34.7938 158.153 35.6206 157.545 36.1943C156.972 36.768 156.145 37.0549 155.065 37.0549H137.651Z" fill="white"/>
<path d="M165.86 37.4598C164.611 37.4598 163.649 37.1055 162.974 36.3968C162.333 35.6544 162.012 34.6251 162.012 33.3089V15.9964C162.012 14.6465 162.333 13.6172 162.974 12.9085C163.649 12.166 164.611 11.7948 165.86 11.7948C167.075 11.7948 168.003 12.166 168.644 12.9085C169.319 13.6172 169.656 14.6465 169.656 15.9964V33.3089C169.656 34.6251 169.336 35.6544 168.694 36.3968C168.053 37.1055 167.108 37.4598 165.86 37.4598ZM165.86 7.64384C164.442 7.64384 163.345 7.32323 162.569 6.68203C161.827 6.00708 161.456 5.06214 161.456 3.84723C161.456 2.59857 161.827 1.65364 162.569 1.01243C163.345 0.337477 164.442 0 165.86 0C167.277 0 168.357 0.337477 169.099 1.01243C169.842 1.65364 170.213 2.59857 170.213 3.84723C170.213 5.06214 169.842 6.00708 169.099 6.68203C168.357 7.32323 167.277 7.64384 165.86 7.64384Z" fill="white"/>
<path d="M179.405 37.5105C178.156 37.5105 177.194 37.173 176.519 36.498C175.878 35.8231 175.558 34.8613 175.558 33.6126V15.642C175.558 14.3934 175.878 13.4484 176.519 12.8072C177.194 12.1323 178.122 11.7948 179.304 11.7948C180.518 11.7948 181.447 12.1323 182.088 12.8072C182.729 13.4484 183.05 14.3934 183.05 15.642V18.5274L182.493 16.8569C183.269 15.2033 184.416 13.9378 185.935 13.0603C187.487 12.1491 189.242 11.6935 191.2 11.6935C193.191 11.6935 194.827 12.0816 196.11 12.8578C197.392 13.6003 198.354 14.7477 198.995 16.3001C199.637 17.8187 199.957 19.7592 199.957 22.1216V33.6126C199.957 34.8613 199.62 35.8231 198.945 36.498C198.303 37.173 197.359 37.5105 196.11 37.5105C194.895 37.5105 193.95 37.173 193.275 36.498C192.634 35.8231 192.313 34.8613 192.313 33.6126V22.4759C192.313 20.7548 191.993 19.523 191.351 18.7805C190.744 18.0044 189.799 17.6163 188.517 17.6163C186.897 17.6163 185.598 18.1225 184.619 19.1349C183.674 20.1473 183.201 21.4972 183.201 23.1846V33.6126C183.201 36.2112 181.936 37.5105 179.405 37.5105Z" fill="white"/>
<path d="M218.572 37.6117C215.636 37.6117 213.105 37.0886 210.979 36.0424C208.886 34.9625 207.267 33.4608 206.119 31.5371C205.005 29.5798 204.449 27.2849 204.449 24.6526C204.449 22.0878 204.989 19.8436 206.068 17.92C207.148 15.9626 208.65 14.444 210.574 13.3641C212.531 12.2504 214.742 11.6935 217.205 11.6935C218.994 11.6935 220.614 11.9973 222.065 12.6047C223.516 13.1784 224.765 14.0221 225.811 15.1358C226.857 16.2157 227.65 17.5488 228.19 19.1349C228.73 20.6873 229 22.4253 229 24.3489C229 24.9901 228.797 25.4794 228.393 25.8169C227.988 26.1207 227.397 26.2725 226.621 26.2725H210.726V22.324H223.482L222.672 23.0327C222.672 21.6491 222.47 20.5017 222.065 19.5905C221.66 18.6456 221.069 17.9369 220.293 17.4644C219.551 16.9919 218.623 16.7557 217.509 16.7557C216.26 16.7557 215.197 17.0425 214.32 17.6163C213.442 18.19 212.767 19.0168 212.295 20.0967C211.822 21.1766 211.586 22.4759 211.586 23.9946V24.3995C211.586 26.9643 212.177 28.8542 213.358 30.0691C214.573 31.284 216.361 31.8915 218.724 31.8915C219.534 31.8915 220.462 31.7903 221.508 31.5878C222.554 31.3853 223.533 31.0647 224.444 30.626C225.22 30.2547 225.912 30.1366 226.52 30.2716C227.127 30.3729 227.599 30.6428 227.937 31.0816C228.274 31.5203 228.46 32.0265 228.494 32.6002C228.561 33.1739 228.443 33.7476 228.139 34.3213C227.836 34.8613 227.329 35.3169 226.621 35.6881C225.473 36.3293 224.174 36.8018 222.723 37.1055C221.306 37.443 219.922 37.6117 218.572 37.6117Z" fill="white"/>
<path d="M31.488 2.78809H4.60907C2.85931 2.78809 1.95315 4.87634 3.14839 6.15426L7.41965 10.721C7.79783 11.1253 8.32669 11.3548 8.88032 11.3548H31.488C32.5926 11.3548 33.488 10.4594 33.488 9.35479V4.78809C33.488 3.68352 32.5926 2.78809 31.488 2.78809Z" fill="#09D28E"/>
<path d="M30.7092 16.8063H17.3106C15.5257 16.8063 14.6348 18.9669 15.9008 20.225L20.4963 24.7917C20.871 25.164 21.3778 25.373 21.9061 25.373H30.7092C31.8138 25.373 32.7092 24.4776 32.7092 23.373V18.8063C32.7092 17.7018 31.8138 16.8063 30.7092 16.8063Z" fill="#F5F5F5"/>
</svg>
