<svg width="295" height="49" viewBox="0 0 295 49" fill="none" xmlns="http://www.w3.org/2000/svg">
<path d="M59.88 48C58.19 48 56.89 47.545 55.98 46.635C55.07 45.725 54.615 44.425 54.615 42.735V7.44C54.615 5.75 55.07 4.45 55.98 3.54C56.89 2.63 58.19 2.175 59.88 2.175H75.61C78.86 2.175 81.6333 2.65167 83.93 3.605C86.2267 4.55834 87.96 5.92334 89.13 7.7C90.3433 9.47667 90.95 11.6 90.95 14.07C90.95 16.8 90.17 19.1183 88.61 21.025C87.05 22.9317 84.905 24.21 82.175 24.86V23.82C85.3383 24.3833 87.7867 25.64 89.52 27.59C91.2967 29.4967 92.185 31.9883 92.185 35.065C92.185 39.1383 90.7767 42.3233 87.96 44.62C85.1433 46.8733 81.265 48 76.325 48H59.88ZM64.235 40.525H74.96C77.56 40.525 79.4667 40.0267 80.68 39.03C81.8933 37.99 82.5 36.4733 82.5 34.48C82.5 32.4867 81.8933 30.9917 80.68 29.995C79.4667 28.9983 77.56 28.5 74.96 28.5H64.235V40.525ZM64.235 21.025H73.855C76.3683 21.025 78.2317 20.5483 79.445 19.595C80.6583 18.6417 81.265 17.2117 81.265 15.305C81.265 13.4417 80.6583 12.0333 79.445 11.08C78.2317 10.1267 76.3683 9.65 73.855 9.65H64.235V21.025Z" fill="white"/>
<path d="M110.73 48.715C108.044 48.715 105.812 48.2167 104.035 47.22C102.259 46.2233 100.937 44.7283 100.07 42.735C99.247 40.6983 98.8353 38.185 98.8353 35.195V20.505C98.8353 18.8583 99.247 17.6233 100.07 16.8C100.937 15.9767 102.15 15.565 103.71 15.565C105.27 15.565 106.484 15.9767 107.35 16.8C108.217 17.6233 108.65 18.8583 108.65 20.505V35.455C108.65 37.3617 109.04 38.7917 109.82 39.745C110.6 40.655 111.835 41.11 113.525 41.11C115.389 41.11 116.905 40.46 118.075 39.16C119.289 37.8167 119.895 36.0617 119.895 33.895V20.505C119.895 18.8583 120.307 17.6233 121.13 16.8C121.997 15.9767 123.21 15.565 124.77 15.565C126.374 15.565 127.587 15.9767 128.41 16.8C129.277 17.6233 129.71 18.8583 129.71 20.505V43.58C129.71 46.9167 128.129 48.585 124.965 48.585C123.405 48.585 122.214 48.1517 121.39 47.285C120.567 46.4183 120.155 45.1833 120.155 43.58V39.225L121.13 41.76C120.177 43.97 118.812 45.6817 117.035 46.895C115.259 48.1083 113.157 48.715 110.73 48.715Z" fill="white"/>
<path d="M149.525 48.715C147.618 48.715 145.647 48.5417 143.61 48.195C141.617 47.8483 139.797 47.2633 138.15 46.44C137.283 46.0067 136.655 45.465 136.265 44.815C135.918 44.1217 135.767 43.4283 135.81 42.735C135.853 42.0417 136.07 41.4133 136.46 40.85C136.893 40.2867 137.435 39.9183 138.085 39.745C138.778 39.5283 139.537 39.5933 140.36 39.94C142.137 40.6767 143.762 41.1967 145.235 41.5C146.708 41.8033 148.16 41.955 149.59 41.955C151.453 41.955 152.797 41.6733 153.62 41.11C154.487 40.5033 154.92 39.7233 154.92 38.77C154.92 37.9033 154.638 37.2533 154.075 36.82C153.512 36.3867 152.688 36.0833 151.605 35.91L144.78 34.675C142.093 34.1983 140.013 33.2233 138.54 31.75C137.11 30.2333 136.395 28.305 136.395 25.965C136.395 23.7983 137.002 21.935 138.215 20.375C139.428 18.7717 141.097 17.5583 143.22 16.735C145.387 15.8683 147.835 15.435 150.565 15.435C152.515 15.435 154.313 15.6083 155.96 15.955C157.607 16.3017 159.188 16.865 160.705 17.645C161.485 18.035 162.027 18.555 162.33 19.205C162.677 19.855 162.785 20.5267 162.655 21.22C162.568 21.9133 162.308 22.5417 161.875 23.105C161.442 23.6683 160.878 24.0367 160.185 24.21C159.535 24.3833 158.777 24.2967 157.91 23.95C156.523 23.3 155.245 22.845 154.075 22.585C152.905 22.2817 151.778 22.13 150.695 22.13C148.745 22.13 147.337 22.455 146.47 23.105C145.603 23.7117 145.17 24.4917 145.17 25.445C145.17 26.1817 145.408 26.81 145.885 27.33C146.405 27.8067 147.185 28.1317 148.225 28.305L155.05 29.54C157.867 30.0167 160.012 30.97 161.485 32.4C162.958 33.7867 163.695 35.6933 163.695 38.12C163.695 41.4133 162.395 44.0133 159.795 45.92C157.238 47.7833 153.815 48.715 149.525 48.715Z" fill="white"/>
<path d="M176.75 48C175.103 48 173.825 47.545 172.915 46.635C172.048 45.725 171.615 44.4683 171.615 42.865V7.18C171.615 5.49 172.048 4.21167 172.915 3.345C173.782 2.47833 175.038 2.045 176.685 2.045C178.288 2.045 179.523 2.47833 180.39 3.345C181.257 4.21167 181.69 5.49 181.69 7.18V39.485H199.11C200.497 39.485 201.558 39.8533 202.295 40.59C203.075 41.3267 203.465 42.3667 203.465 43.71C203.465 45.0967 203.075 46.1583 202.295 46.895C201.558 47.6317 200.497 48 199.11 48H176.75Z" fill="#09D28E"/>
<path d="M212.971 48.52C211.367 48.52 210.132 48.065 209.266 47.155C208.442 46.2017 208.031 44.88 208.031 43.19V20.96C208.031 19.2267 208.442 17.905 209.266 16.995C210.132 16.0417 211.367 15.565 212.971 15.565C214.531 15.565 215.722 16.0417 216.546 16.995C217.412 17.905 217.846 19.2267 217.846 20.96V43.19C217.846 44.88 217.434 46.2017 216.611 47.155C215.787 48.065 214.574 48.52 212.971 48.52ZM212.971 10.235C211.151 10.235 209.742 9.82333 208.746 9C207.792 8.13333 207.316 6.92 207.316 5.36C207.316 3.75667 207.792 2.54333 208.746 1.72C209.742 0.853333 211.151 0.419998 212.971 0.419998C214.791 0.419998 216.177 0.853333 217.131 1.72C218.084 2.54333 218.561 3.75667 218.561 5.36C218.561 6.92 218.084 8.13333 217.131 9C216.177 9.82333 214.791 10.235 212.971 10.235Z" fill="#09D28E"/>
<path d="M230.363 48.585C228.76 48.585 227.525 48.1517 226.658 47.285C225.835 46.4183 225.423 45.1833 225.423 43.58V20.505C225.423 18.9017 225.835 17.6883 226.658 16.865C227.525 15.9983 228.717 15.565 230.233 15.565C231.793 15.565 232.985 15.9983 233.808 16.865C234.632 17.6883 235.043 18.9017 235.043 20.505V24.21L234.328 22.065C235.325 19.9417 236.798 18.3167 238.748 17.19C240.742 16.02 242.995 15.435 245.508 15.435C248.065 15.435 250.167 15.9333 251.813 16.93C253.46 17.8833 254.695 19.3567 255.518 21.35C256.342 23.3 256.753 25.7917 256.753 28.825V43.58C256.753 45.1833 256.32 46.4183 255.453 47.285C254.63 48.1517 253.417 48.585 251.813 48.585C250.253 48.585 249.04 48.1517 248.173 47.285C247.35 46.4183 246.938 45.1833 246.938 43.58V29.28C246.938 27.07 246.527 25.4883 245.703 24.535C244.923 23.5383 243.71 23.04 242.063 23.04C239.983 23.04 238.315 23.69 237.058 24.99C235.845 26.29 235.238 28.0233 235.238 30.19V43.58C235.238 46.9167 233.613 48.585 230.363 48.585Z" fill="#09D28E"/>
<path d="M280.656 48.715C276.886 48.715 273.636 48.0433 270.906 46.7C268.219 45.3133 266.139 43.385 264.666 40.915C263.236 38.4017 262.521 35.455 262.521 32.075C262.521 28.7817 263.214 25.9 264.601 23.43C265.987 20.9167 267.916 18.9667 270.386 17.58C272.899 16.15 275.737 15.435 278.901 15.435C281.197 15.435 283.277 15.825 285.141 16.605C287.004 17.3417 288.607 18.425 289.951 19.855C291.294 21.2417 292.312 22.9533 293.006 24.99C293.699 26.9833 294.046 29.215 294.046 31.685C294.046 32.5083 293.786 33.1367 293.266 33.57C292.746 33.96 291.987 34.155 290.991 34.155H270.581V29.085H286.961L285.921 29.995C285.921 28.2183 285.661 26.745 285.141 25.575C284.621 24.3617 283.862 23.4517 282.866 22.845C281.912 22.2383 280.721 21.935 279.291 21.935C277.687 21.935 276.322 22.3033 275.196 23.04C274.069 23.7767 273.202 24.8383 272.596 26.225C271.989 27.6117 271.686 29.28 271.686 31.23V31.75C271.686 35.0433 272.444 37.47 273.961 39.03C275.521 40.59 277.817 41.37 280.851 41.37C281.891 41.37 283.082 41.24 284.426 40.98C285.769 40.72 287.026 40.3083 288.196 39.745C289.192 39.2683 290.081 39.1167 290.861 39.29C291.641 39.42 292.247 39.7667 292.681 40.33C293.114 40.8933 293.352 41.5433 293.396 42.28C293.482 43.0167 293.331 43.7533 292.941 44.49C292.551 45.1833 291.901 45.7683 290.991 46.245C289.517 47.0683 287.849 47.675 285.986 48.065C284.166 48.4983 282.389 48.715 280.656 48.715Z" fill="#09D28E"/>
<path d="M41 4H4.60907C2.85931 4 1.95315 6.08825 3.14839 7.36617L9.69552 14.3662C10.0737 14.7705 10.6026 15 11.1562 15H41C42.1046 15 43 14.1046 43 13V6C43 4.89543 42.1046 4 41 4Z" fill="#09D28E"/>
<path d="M40 22H20.85C19.0651 22 18.1742 24.1605 19.4402 25.4186L26.4843 32.4186C26.859 32.791 27.3658 33 27.8941 33H40C41.1046 33 42 32.1046 42 31V24C42 22.8954 41.1046 22 40 22Z" fill="#F5F5F5"/>
</svg>
